<?xml version="1.0" ?><!DOCTYPE svg  PUBLIC '-//W3C//DTD SVG 1.1//EN'  'http://www.w3.org/Graphics/SVG/1.1/DTD/svg11.dtd'><svg enable-background="new 0 0 512 512" height="512px" id="Calque_1" version="1.1" viewBox="0 0 512 512" width="512px" xml:space="preserve" xmlns="http://www.w3.org/2000/svg" xmlns:xlink="http://www.w3.org/1999/xlink"><g><polygon fill="#D712F9" points="235.17,113.85 256,135.81 276.83,113.85 256,68.59  "/><polygon fill="#D712F9" points="223.78,158.06 240.18,148.19 228.82,136.21  "/><polygon fill="#D712F9" points="315.5,187.45 326.469,235.24 376.86,180.42  "/><path d="M399.269,300.37c1.33-13.93,2-28.83,2-44.37c0-17.44-0.84-33.97-2.51-49.36l-32.34,88.94L399.269,300.37z" fill="#D712F9"/><polygon fill="#D712F9" points="288.219,158.06 283.179,136.21 271.82,148.19  "/><polygon fill="#D712F9" points="300.179,120.89 306.98,150.39 332,103.12  "/><path d="M320.969,166.69l68.98-7.9c-2.21-8.04-4.74-15.65-7.601-22.82c-6.29-15.79-14.14-29.45-23.479-40.87   L320.969,166.69z" fill="#D712F9"/><path d="M116.29,327.12c5.24,30.189,14.2,55.53,26.76,75.66c1,1.609,2.02,3.18,3.06,4.72l2.72-92.19l-33.66,4.91   C115.52,322.55,115.89,324.85,116.29,327.12z" fill="#D712F9"/><path d="M240.73,458.41c1.8,0,3.56-0.04,5.27-0.12v-77.11l-74.62,53.7C197.35,455.24,225.65,458.41,240.73,458.41z" fill="#D712F9"/><polygon fill="#D712F9" points="318.23,312.66 338.66,300.5 325.54,280.84  "/><path d="M339.33,76.12c-25.64-19.48-53.28-22.53-68.07-22.53h-0.149l22.199,48.23L339.33,76.12z" fill="#D712F9"/><polygon fill="#D712F9" points="343.33,320.99 316.54,336.941 345.41,391.46  "/><polygon fill="#D712F9" points="274.16,362.41 327.86,401.05 299.36,347.231  "/><polygon fill="#D712F9" points="211.82,120.89 180,103.12 205.02,150.39  "/><polygon fill="#D712F9" points="294.46,326.84 310.719,256 294.46,185.16 256,162.01 217.54,185.16 201.28,256 217.54,326.84    256,349.99  "/><polygon fill="#D712F9" points="178.34,256.981 136.12,211.04 161.83,281.72  "/><path d="M112.73,300.37l32.85-4.79l-32.34-88.94c-1.67,15.39-2.51,31.91-2.51,49.36c0,9.72,0.26,19.18,0.78,28.31   C111.82,289.79,112.23,295.151,112.73,300.37z" fill="#D712F9"/><path d="M274.24,458.37c15.63-0.42,42.029-4.4,66.38-23.49L266,381.18v77.11c1.72,0.08,3.49,0.12,5.26,0.12   C272.2,458.41,273.2,458.401,274.24,458.37z" fill="#D712F9"/><polygon fill="#D712F9" points="333.66,256.981 350.17,281.72 375.88,211.05  "/><path d="M396.83,320.22l-33.66-4.91l2.72,92.181C381.05,385.2,391.429,355.93,396.83,320.22z" fill="#D712F9"/><polygon fill="#D712F9" points="237.84,362.41 212.64,347.231 202.77,365.861 184.15,401.05 212.56,380.6  "/><polygon fill="#D712F9" points="173.34,300.5 193.76,312.66 186.46,280.84  "/><polygon fill="#D712F9" points="166.59,391.46 195.46,336.941 168.68,320.99  "/><path d="M191.02,166.69l-37.89-71.58c-13.59,16.6-24.01,37.96-31.08,63.68L191.02,166.69z" fill="#D712F9"/><polygon fill="#D712F9" points="135.14,180.42 185.53,235.24 196.5,187.45 141.44,181.14  "/><path d="M229.35,54.16c-15.39,1.55-36.64,6.74-56.67,21.96l46.01,25.7l22.2-48.23h-0.15   C237.51,53.59,233.66,53.73,229.35,54.16z" fill="#D712F9"/></g><g opacity="0.3"><polygon points="223.776,158.056 240.176,148.187 228.817,136.206  "/><path d="M148.756,317.63l-17.77,2.59c0.35,2.33,0.72,4.63,1.12,6.9c3.39,19.55,8.34,37.06,14.819,52.439l-0.819,27.94   c-1.04-1.54-2.061-3.11-3.061-4.72c-12.56-20.131-21.52-45.471-26.76-75.66c-0.4-2.271-0.771-4.57-1.12-6.9l33.66-4.91   L148.756,317.63z"/><path d="M245.996,392.56l-58.8,42.32c20.76,16.27,43.01,21.57,58.8,23.03v0.38c-1.71,0.08-3.47,0.12-5.27,0.12   c-15.08,0-43.381-3.17-69.351-23.53l74.62-53.7V392.56z"/><polygon points="209.817,129.57 205.016,150.39 179.996,103.12 202.456,115.66  "/><polygon points="233.357,326.84 263.907,345.23 255.996,349.99 217.536,326.84 201.277,256 217.536,185.16 255.996,162.01    263.907,166.77 233.357,185.16 217.096,256  "/><polygon points="172.067,266.38 161.826,281.72 136.116,211.04 162.296,239.531  "/><path d="M128.336,298.09l-15.609,2.28c-0.5-5.221-0.91-10.58-1.221-16.061c-0.52-9.13-0.779-18.59-0.779-28.31   c0-17.45,0.84-33.97,2.51-49.36l13.46,37.01c-0.101,4.061-0.15,8.181-0.15,12.351c0,9.72,0.26,19.18,0.78,28.31   C127.596,289,127.926,293.59,128.336,298.09z"/><polygon points="224.626,354.45 218.586,365.86 209.697,382.66 184.147,401.05 202.766,365.86 212.636,347.23  "/><polygon points="193.756,312.66 173.336,300.5 186.456,280.84 190.506,298.48 189.156,300.5 191.256,301.75  "/><polygon points="184.227,330.25 183.346,359.81 166.586,391.46 168.676,320.99  "/><path d="M191.016,166.69l-68.97-7.899c7.07-25.721,17.49-47.08,31.08-63.681l6.68,12.631c-9.21,14.359-16.55,31.439-21.939,51.05   l52.13,5.97L191.016,166.69z"/><polygon points="188.687,221.47 185.527,235.24 135.136,180.42 141.437,181.14 152.817,182.44  "/><path d="M240.357,54.75c-14.841,2.109-33.841,7.68-51.86,21.37l33.43,18.67l-3.239,7.029L172.676,76.12   c20.03-15.221,41.28-20.41,56.67-21.96c4.311-0.431,8.16-0.57,11.391-0.57h0.149L240.357,54.75z"/></g><g opacity="0.3"><polygon fill="#FFFFFF" points="288.313,158.056 271.913,148.187 283.272,136.206  "/><path d="M363.333,317.63l17.77,2.59c-0.35,2.33-0.72,4.63-1.12,6.9c-3.39,19.55-8.34,37.06-14.819,52.439   l0.819,27.94c1.04-1.54,2.061-3.11,3.061-4.72c12.56-20.131,21.52-45.471,26.76-75.66c0.4-2.271,0.771-4.57,1.12-6.9l-33.66-4.91   L363.333,317.63z" fill="#FFFFFF"/><path d="M266.093,392.56l58.8,42.32c-20.76,16.27-43.01,21.57-58.8,23.03v0.38c1.71,0.08,3.47,0.12,5.27,0.12   c15.08,0,43.381-3.17,69.351-23.53l-74.62-53.7V392.56z" fill="#FFFFFF"/><polygon fill="#FFFFFF" points="302.272,129.57 307.073,150.39 332.093,103.12 309.633,115.66  "/><polygon fill="#FFFFFF" points="278.732,326.84 248.181,345.23 256.093,349.99 294.552,326.84 310.812,256 294.552,185.16    256.093,162.01 248.181,166.77 278.732,185.16 294.993,256  "/><polygon fill="#FFFFFF" points="340.022,266.38 350.262,281.72 375.972,211.04 349.793,239.531  "/><path d="M383.753,298.09l15.609,2.28c0.5-5.221,0.91-10.58,1.221-16.061c0.52-9.13,0.779-18.59,0.779-28.31   c0-17.45-0.84-33.97-2.51-49.36l-13.46,37.01c0.101,4.061,0.15,8.181,0.15,12.351c0,9.72-0.26,19.18-0.78,28.31   C384.493,289,384.163,293.59,383.753,298.09z" fill="#FFFFFF"/><polygon fill="#FFFFFF" points="287.463,354.45 293.503,365.86 302.392,382.66 327.942,401.05 309.323,365.86 299.453,347.23  "/><polygon fill="#FFFFFF" points="318.333,312.66 338.753,300.5 325.633,280.84 321.583,298.48 322.932,300.5 320.833,301.75  "/><polygon fill="#FFFFFF" points="327.862,330.25 328.743,359.81 345.503,391.46 343.413,320.99  "/><path d="M321.073,166.69l68.97-7.899c-7.07-25.721-17.49-47.08-31.08-63.681l-6.68,12.631   c9.21,14.359,16.55,31.439,21.939,51.05l-52.13,5.97L321.073,166.69z" fill="#FFFFFF"/><polygon fill="#FFFFFF" points="323.402,221.47 326.562,235.24 376.953,180.42 370.652,181.14 359.272,182.44  "/><path d="M271.732,54.75c14.841,2.109,33.841,7.68,51.86,21.37l-33.43,18.67l3.239,7.029l46.011-25.699   c-20.03-15.221-41.28-20.41-56.67-21.96c-4.311-0.431-8.16-0.57-11.391-0.57h-0.149L271.732,54.75z" fill="#FFFFFF"/></g><g><polygon fill="none" points="294.461,118.355 305.115,164.587 344.334,90.507  "/><polygon fill="none" points="323.724,245.623 389.623,173.925 309.379,183.115  "/><polygon fill="none" points="201.253,322.939 188.742,268.422 166.262,302.099  "/><polygon fill="none" points="323.256,268.42 310.744,322.939 345.738,302.099  "/><polygon fill="none" points="188.274,245.622 202.618,183.115 122.375,173.925  "/><polygon fill="none" points="229.211,114.835 255.999,143.073 282.787,114.835 255.999,56.633  "/><polygon fill="none" points="206.883,164.587 217.538,118.355 167.664,90.507  "/><polygon fill="none" points="315.845,256.001 298.857,181.974 255.999,156.174 213.142,181.974 196.153,256.001 213.142,330.029    255.999,355.829 298.857,330.029  "/><polygon fill="none" points="295.738,168.423 285.965,126.016 263.91,149.264  "/><polygon fill="none" points="248.088,149.264 226.034,126.017 216.262,168.423  "/><polygon fill="none" points="184.683,256.492 122.867,189.236 160.503,292.713  "/><polygon fill="none" points="351.494,292.712 389.129,189.238 327.316,256.492  "/><path d="M403.717,306.071c1.697-15.597,2.553-32.289,2.553-50.069c0-25.631-1.77-49.009-5.289-70.085L359.617,299.64   L403.717,306.071z" fill="none"/><path d="M261,371.424v91.51c2.477,0.244,5.979,0.48,10.258,0.48c17.059,0,49.188-3.854,77.523-28.821L261,371.424z" fill="none"/><path d="M154.006,309.508l-44.5,6.488c6.182,45.344,19.953,80.762,41.185,105.796L154.006,309.508z" fill="none"/><path d="M199.883,172.738l-45.75-86.415c-17.545,19.067-30.364,44.733-38.384,76.778L199.883,172.738z" fill="none"/><path d="M220.973,108.819l27.596-59.957c-2.164-0.155-4.796-0.274-7.826-0.274c-16.938,0-48.744,3.805-76.938,28.311   L220.973,108.819z" fill="none"/><path d="M291.027,108.819l57.17-31.922c-28.193-24.506-60-28.31-76.941-28.31c-3.027,0-5.658,0.12-7.824,0.275   L291.027,108.819z" fill="none"/><path d="M111.02,185.917c-3.521,21.076-5.289,44.454-5.289,70.084c0,17.78,0.854,34.474,2.55,50.069l44.102-6.432   L111.02,185.917z" fill="none"/><path d="M250.999,371.424l-87.786,63.171c28.333,24.962,60.459,28.819,77.52,28.819c0.003,0,0.005,0,0.008,0   c4.279,0,7.781-0.237,10.259-0.481V371.424L250.999,371.424z" fill="none"/><polygon fill="none" points="301.31,340.226 265.078,362.037 342.263,417.58  "/><polygon fill="none" points="210.69,340.226 169.737,417.58 246.922,362.037  "/><polygon fill="none" points="202.1,335.08 163.927,312.348 160.96,412.783  "/><polygon fill="none" points="348.072,312.348 309.9,335.08 351.037,412.783  "/><path d="M312.115,172.738l84.133-9.638c-8.018-32.046-20.838-57.713-38.383-76.78L312.115,172.738z" fill="none"/><path d="M357.992,309.508l3.316,112.278c21.23-25.032,35.002-60.448,41.184-105.79L357.992,309.508z" fill="none"/><path d="M416.269,256.001c0-84.174-18.848-145.24-55.998-181.563c-0.037-0.039-0.066-0.083-0.105-0.121   c-0.029-0.029-0.064-0.052-0.098-0.082c-0.227-0.22-0.443-0.449-0.67-0.667c-31.717-30.437-68.836-34.981-88.143-34.981   c-7.719,0-13.182,0.703-15.255,1.021c-2.075-0.317-7.535-1.021-15.258-1.021c-19.304,0-56.425,4.545-88.143,34.987   c-0.22,0.211-0.43,0.433-0.646,0.645c-0.039,0.035-0.082,0.063-0.12,0.099c-0.047,0.046-0.083,0.101-0.127,0.147   c-37.138,36.327-55.976,97.384-55.976,181.537c0,84.839,19.134,146.219,56.87,182.434c31.713,30.436,68.826,34.979,88.131,34.979   c0.002,0,0.006,0,0.009,0c7.719-0.001,13.183-0.702,15.258-1.021c2.076,0.318,7.537,1.021,15.259,1.021   c19.305,0,56.426-4.546,88.143-34.986c0.188-0.179,0.365-0.368,0.551-0.549c0.002-0.001,0.002-0.001,0.004-0.002   c0.006-0.007,0.012-0.014,0.018-0.02C397.324,401.572,416.269,340.399,416.269,256.001z M226.034,126.017l22.054,23.248   l-31.826,19.159L226.034,126.017z M285.965,126.016l9.773,42.407l-31.828-19.159L285.965,126.016z M406.269,256.001   c0,17.78-0.855,34.474-2.551,50.069l-44.102-6.432l41.363-113.724C404.5,206.992,406.269,230.37,406.269,256.001z M351.494,292.712   l-24.178-36.22l61.813-67.255L351.494,292.712z M255.999,355.829l-42.857-25.801l-16.989-74.027l16.989-74.027l42.857-25.8   l42.858,25.8l16.988,74.027l-16.986,74.027L255.999,355.829z M188.742,268.422l12.511,54.517l-34.991-20.84L188.742,268.422z    M323.256,268.42l22.482,33.679l-34.994,20.84L323.256,268.42z M323.724,245.623l-14.346-62.508l80.244-9.19L323.724,245.623z    M294.461,118.355l49.873-27.848l-39.219,74.08L294.461,118.355z M255.999,143.073l-26.788-28.237l26.788-58.202l26.788,58.202   L255.999,143.073z M206.883,164.587l-39.219-74.081l49.874,27.848L206.883,164.587z M188.274,245.622l-65.898-71.697l80.243,9.19   L188.274,245.622z M184.683,256.492l-24.18,36.221l-37.636-103.478L184.683,256.492z M105.731,256.001   c0-25.63,1.768-49.008,5.289-70.084l41.362,113.723l-44.102,6.432C106.584,290.475,105.731,273.781,105.731,256.001z M202.1,335.08   l-41.139,77.703l2.967-100.437L202.1,335.08z M210.69,340.226l36.231,21.813l-77.186,55.543L210.69,340.226z M301.31,340.226   l40.953,77.354l-77.186-55.543L301.31,340.226z M309.9,335.08l38.172-22.732l2.965,100.437L309.9,335.08z M361.308,421.786   l-3.314-112.278l44.498,6.488C396.312,361.338,382.539,396.754,361.308,421.786z M396.248,163.1l-84.133,9.638l45.75-86.418   C375.41,105.387,388.23,131.054,396.248,163.1z M348.197,76.897l-57.17,31.922l-27.596-59.957c2.164-0.155,4.797-0.275,7.824-0.275   C288.197,48.586,320.004,52.391,348.197,76.897z M248.568,48.862l-27.596,59.957l-57.168-31.921   c28.194-24.506,60-28.311,76.938-28.311C243.772,48.586,246.404,48.706,248.568,48.862z M154.134,86.323l45.75,86.415   l-84.133-9.637C123.77,131.056,136.588,105.39,154.134,86.323z M109.506,315.996l44.5-6.488l-3.315,112.283   C129.458,396.758,115.688,361.34,109.506,315.996z M240.74,463.414c-0.003,0-0.005,0-0.008,0c-17.061,0-49.186-3.857-77.52-28.819   l87.786-63.171v91.509C248.522,463.177,245.02,463.414,240.74,463.414z M261,462.934v-91.51l87.781,63.169   c-28.338,24.967-60.467,28.821-77.523,28.821C266.978,463.414,263.476,463.178,261,462.934z" fill="#020202"/></g><circle cx="435.126" cy="345.476" fill="#D712F9" r="12"/><circle cx="389.129" cy="458.41" fill="#D712F9" r="12"/><circle cx="128.155" cy="470.412" fill="#D712F9" r="12"/><circle cx="41.127" cy="256" fill="#D712F9" r="12"/><circle cx="469.03" cy="48.587" fill="#D712F9" r="12"/><circle cx="377.127" cy="24.582" fill="#D712F9" r="12"/><circle cx="41.127" cy="24.582" fill="#D712F9" r="12"/><polygon fill="#FECD0E" points="476.731,423.475 490.28,403.073 469.3,415.5 448.899,401.957 461.327,422.935 447.78,443.335   468.759,430.909 489.158,444.452 "/><polygon fill="#FECD0E" points="464.729,156.444 478.278,136.043 457.298,148.469 436.897,134.927 449.325,155.904 435.778,176.304   456.757,163.879 477.156,177.422 "/><polygon fill="#FECD0E" points="60.83,126.286 74.379,105.885 53.398,118.311 32.998,104.768 45.426,125.746 31.879,146.146   52.857,133.72 73.257,147.263 "/><polygon fill="#FECD0E" points="70.078,434.301 83.627,413.9 62.646,426.326 42.246,412.783 54.674,433.761 41.127,454.161   62.105,441.736 82.505,455.279 "/></svg>