<?xml version="1.0" ?><!DOCTYPE svg  PUBLIC '-//W3C//DTD SVG 1.1//EN'  'http://www.w3.org/Graphics/SVG/1.1/DTD/svg11.dtd'><svg enable-background="new 0 0 512 512" height="512px" id="Calque_1" version="1.1" viewBox="0 0 512 512" width="512px" xml:space="preserve" xmlns="http://www.w3.org/2000/svg" xmlns:xlink="http://www.w3.org/1999/xlink"><g><polygon fill="#FECD0E" points="266.474,90.147 256,56.575 245.526,90.147 256,103.54  "/><polygon fill="#FECD0E" points="242.866,119.211 237.149,111.901 229.185,133.918  "/><path d="M236.449,52.087c-11.532,10.558-25.344,24.573-39.095,41.792c-0.959,1.202-1.898,2.422-2.842,3.638   c-1.969,2.537-3.915,5.092-5.81,7.683l37.716-20.961L236.449,52.087z" fill="#FECD0E"/><polygon fill="#FECD0E" points="191.851,179.653 173.975,162.244 182.811,211.559  "/><path d="M154.172,165.135c-13.747,31.934-20.704,64.589-20.703,97.277c0,7.861,0.411,15.764,1.224,23.597   l0.816-0.778l34.313-32.755L154.172,165.135z" fill="#FECD0E"/><polygon fill="#FECD0E" points="215.392,113.247 175.241,135.561 198.965,158.665  "/><polygon fill="#FECD0E" points="338.026,162.244 320.151,179.652 329.189,211.558  "/><polygon fill="#FECD0E" points="229.198,379.535 230.84,379.862 212.827,360.498 212.66,376.249  "/><polygon fill="#FECD0E" points="299.342,376.25 299.173,360.498 281.159,379.863  "/><polygon fill="#FECD0E" points="282.814,133.916 276.609,116.762 274.851,111.901 269.135,119.211 281.861,132.891  "/><polygon fill="#FECD0E" points="320.993,256 299.941,181.692 256,134.455 212.059,181.692 191.008,256 212.059,330.308    256,377.545 299.94,330.308  "/><path d="M285.583,84.238l18.858,10.481l18.856,10.48c-0.7-0.958-1.422-1.902-2.133-2.854   c-2.134-2.854-4.299-5.686-6.519-8.466c-8.432-10.559-16.886-19.908-24.826-28c-5.006-5.102-9.809-9.707-14.268-13.79l8.466,27.134   L285.583,84.238z" fill="#FECD0E"/><polygon fill="#FECD0E" points="175.516,274.692 145.93,302.935 188.051,318.939  "/><polygon fill="#FECD0E" points="313.037,158.665 336.76,135.561 296.607,113.246  "/><path d="M329.254,406.271c15.003-20.37,26.696-41.87,34.932-64.205l-43.018,44.608L329.254,406.271z" fill="#FECD0E"/><polygon fill="#FECD0E" points="318.979,342.222 319.168,359.935 346.234,331.866  "/><polygon fill="#FECD0E" points="323.95,318.939 366.07,302.934 336.484,274.692  "/><path d="M342.177,252.475l35.131,33.535c0.813-7.836,1.225-15.739,1.225-23.598   c0-32.689-6.958-65.345-20.704-97.279L342.177,252.475z" fill="#FECD0E"/><path d="M182.746,406.273l8.086-19.599l-43.018-44.608C156.049,364.398,167.747,385.905,182.746,406.273z" fill="#FECD0E"/><path d="M283.069,433.056l-9.126,30.686c11.954-9.617,26.498-22.785,40.981-39.524   c0.022-0.025,0.044-0.051,0.066-0.076l-8.371-20.288L283.069,433.056z" fill="#FECD0E"/><path d="M205.381,403.854l-8.371,20.288c0.022,0.025,0.044,0.051,0.066,0.076   c14.487,16.743,29.029,29.909,40.98,39.524l-9.125-30.684L205.381,403.854z" fill="#FECD0E"/><polygon fill="#FECD0E" points="192.832,359.935 193.021,342.222 165.762,331.865  "/><polygon fill="#FECD0E" points="248.721,429.441 256,453.915 263.278,429.441 256,416.026  "/><polygon fill="#FECD0E" points="236.32,410.36 240.736,402.219 227.661,399.621  "/><polygon fill="#FECD0E" points="284.341,399.621 271.263,402.22 275.68,410.361  "/></g><g opacity="0.3"><polygon points="242.13,118.095 241.09,120.955 229.189,133.755 237.149,111.736  "/><path d="M236.449,51.925l-3.069,9.851c-9.05,8.939-18.91,19.62-28.75,31.939c-0.96,1.2-1.9,2.42-2.84,3.641   c-0.181,0.239-0.37,0.47-0.551,0.71l-12.54,6.97c1.9-2.59,3.841-5.15,5.811-7.68c0.95-1.221,1.89-2.44,2.84-3.641   C211.109,76.495,224.92,62.475,236.449,51.925z"/><polygon points="187.269,195.656 182.809,211.396 173.979,162.075 182.79,170.656  "/><path d="M140.75,262.245c0,5.72,0.22,11.47,0.649,17.189l-5.89,5.631l-0.82,0.779c-0.81-7.83-1.22-15.739-1.22-23.6   c0-32.69,6.96-65.34,20.7-97.28l2.25,12.54C146,205.425,140.75,233.825,140.75,262.245z"/><polygon points="213.559,118.146 182.519,135.396 200.859,153.255 198.969,158.495 175.239,135.396 215.389,113.085  "/><polygon points="230.84,379.696 229.199,379.375 212.659,376.085 212.83,360.335 220.029,368.075 219.939,376.085 229.189,377.925     "/><polygon points="188.05,318.776 145.929,302.765 175.519,274.526 177.069,279.986 153.21,302.765 187.17,315.675  "/><path d="M185.409,399.646l-2.659,6.46c-15-20.37-26.7-41.87-34.94-64.2l12.49,12.95C167,370.255,175.389,385.225,185.409,399.646z"/><path d="M238.059,463.575c-11.95-9.61-26.5-22.78-40.979-39.521c-0.03-0.029-0.051-0.05-0.07-0.08l8.37-20.29l4.819,5.971   l-5.909,14.319c0.02,0.03,0.04,0.051,0.06,0.08c10.76,12.44,21.56,22.9,31.29,31.4L238.059,463.575z"/><polygon points="192.909,352.295 192.83,359.765 165.76,331.696 177.25,336.066  "/><polygon points="239.25,404.795 236.319,410.196 227.659,399.455 236.33,401.175  "/></g><g><polygon fill="none" points="314.527,178.149 330.287,233.779 345.695,147.798  "/><polygon fill="none" points="295.859,155.28 276.478,101.703 262.566,119.493  "/><polygon fill="none" points="201.03,167.656 224.638,102.389 166.939,134.456  "/><polygon fill="none" points="239.971,91.162 255.999,111.657 272.029,91.162 255.999,39.789  "/><polygon fill="none" points="333.935,265.346 316.427,327.147 375.258,304.791  "/><polygon fill="none" points="197.473,178.15 166.306,147.797 181.711,233.78  "/><polygon fill="none" points="216.139,155.284 249.433,119.493 235.52,101.703  "/><polygon fill="none" points="263.631,398.639 274.863,419.34 296.885,392.031  "/><polygon fill="none" points="215.115,392.031 237.137,419.338 248.367,398.639  "/><polygon fill="none" points="304.039,347.928 266.965,387.78 304.385,380.346  "/><polygon fill="none" points="207.96,347.926 207.615,380.346 245.034,387.78  "/><polygon fill="none" points="207.576,332.83 255.999,384.887 304.424,332.83 326.189,256.001 304.424,179.17 255.999,127.114    207.576,179.17 185.811,256.001  "/><polygon fill="none" points="310.97,167.656 345.062,134.456 287.361,102.388  "/><path d="M315.299,385.559l12.66,30.684c18.305-23.373,37.131-54.691,47.492-93.063L315.299,385.559z" fill="none"/><path d="M175.217,254.238L156.3,148.664c-15.854,31.874-27.833,70.313-27.833,113.75   c0,11.816,0.893,23.174,2.503,34.063L175.217,254.238z" fill="none"/><path d="M196.701,385.559l-60.154-62.379c10.362,38.371,29.188,69.689,47.494,93.063L196.701,385.559z" fill="none"/><path d="M233.443,430.688l-29.467-36.539l-12.754,30.912c0.691,0.816,1.385,1.635,2.071,2.43   c20.676,23.895,41.535,40.586,53.932,49.543L233.443,430.688z" fill="none"/><polygon fill="none" points="195.573,327.147 178.065,265.346 136.74,304.791  "/><path d="M308.023,394.147l-29.467,36.539l-13.781,46.346c12.395-8.957,33.256-25.646,53.93-49.543   c0.688-0.793,1.381-1.611,2.072-2.43L308.023,394.147z" fill="none"/><polygon fill="none" points="268.662,428.879 255.999,405.541 243.337,428.879 255.999,471.457  "/><path d="M230.595,87.637l15.885-50.912c-12.524,10.348-32.868,28.784-53.033,54.034   c-6.808,8.525-13.914,18.266-20.826,29.098L230.595,87.637z" fill="none"/><polygon fill="none" points="313.941,338.787 314.299,372.188 365.34,319.258  "/><polygon fill="none" points="198.058,338.787 146.657,319.258 197.701,372.188  "/><path d="M336.781,254.238l44.248,42.239c1.609-10.889,2.502-22.246,2.502-34.063c0-43.438-11.979-81.875-27.832-113.75   L336.781,254.238z" fill="none"/><path d="M281.404,87.637l57.975,32.22c-6.912-10.832-14.018-20.572-20.826-29.098   c-20.164-25.25-40.51-43.687-53.031-54.034L281.404,87.637z" fill="none"/><path d="M389.388,307.334c2.754-14.762,4.145-29.762,4.145-44.922c0-34.316-7.102-68.493-21.104-101.581   c-11.172-26.396-26.734-52.155-46.26-76.56c-33.207-41.508-65.943-64.425-67.32-65.38c-1.715-1.188-3.985-1.188-5.699,0   c-1.377,0.955-34.114,23.872-67.321,65.38c-19.522,24.404-35.086,50.162-46.258,76.56c-14.003,33.088-21.104,67.265-21.104,101.581   c0,15.148,1.389,30.141,4.14,44.893c0.015,0.111,0.022,0.225,0.046,0.336c0.02,0.1,0.053,0.195,0.079,0.293   c3.494,18.471,9.121,36.566,16.87,54.127c11.193,25.367,26.79,49.67,46.354,72.232c33.276,38.375,66.101,58.176,67.481,59   c0.79,0.471,1.676,0.705,2.563,0.705c0.887,0,1.774-0.234,2.563-0.705c1.381-0.824,34.205-20.625,67.48-59   c19.564-22.563,35.16-46.865,46.355-72.232c7.752-17.568,13.381-35.674,16.875-54.152c0.021-0.09,0.053-0.176,0.072-0.268   C389.365,307.539,389.373,307.438,389.388,307.334z M274.863,419.34l-11.232-20.701l33.254-6.607L274.863,419.34z M237.137,419.338   l-22.021-27.307l33.252,6.605L237.137,419.338z M207.576,179.17l48.423-52.056l48.424,52.056l21.766,76.831l-21.768,76.83   l-48.422,52.057l-48.423-52.057l-21.766-76.83L207.576,179.17z M207.96,347.926l37.074,39.854l-37.419-7.434L207.96,347.926z    M304.039,347.928l0.346,32.418l-37.42,7.436L304.039,347.928z M333.935,265.346l41.322,39.445l-58.83,22.355L333.935,265.346z    M330.287,233.779l-15.76-55.63l31.168-30.353L330.287,233.779z M310.97,167.656l-23.607-65.268l57.699,32.067L310.97,167.656z    M276.478,101.703l19.381,53.577l-33.293-35.788L276.478,101.703z M255.999,111.657l-16.028-20.495l16.028-51.373l16.03,51.373   L255.999,111.657z M249.433,119.493l-33.293,35.791l19.38-53.581L249.433,119.493z M201.03,167.656l-34.091-33.2l57.698-32.066   L201.03,167.656z M197.473,178.15l-15.761,55.63l-15.406-85.982L197.473,178.15z M178.065,265.346l17.508,61.801l-58.832-22.354   L178.065,265.346z M198.058,338.787l-0.356,33.4l-51.044-52.932L198.058,338.787z M255.999,405.541l12.663,23.338l-12.663,42.578   l-12.662-42.578L255.999,405.541z M313.941,338.787l51.396-19.529l-51.041,52.93L313.941,338.787z M383.531,262.412   c0,11.816-0.893,23.176-2.502,34.064l-44.248-42.24l18.918-105.574C371.552,180.538,383.531,218.976,383.531,262.412z    M318.552,90.76c6.809,8.525,13.914,18.266,20.826,29.098l-57.975-32.22l-15.885-50.912   C278.043,47.073,298.388,65.51,318.552,90.76z M193.447,90.76c20.165-25.25,40.509-43.687,53.033-54.034l-15.885,50.912   l-57.975,32.22C179.532,109.025,186.639,99.285,193.447,90.76z M156.302,148.664l18.917,105.574l-44.248,42.237   c-1.61-10.889-2.502-22.244-2.502-34.063C128.467,218.975,140.448,180.537,156.302,148.664z M136.547,323.18l60.154,62.379   l-12.66,30.684C165.736,392.869,146.91,361.551,136.547,323.18z M193.293,427.489c-0.687-0.793-1.38-1.611-2.071-2.43   l12.754-30.912l29.467,36.541l13.782,46.344C234.828,468.074,213.969,451.385,193.293,427.489z M264.775,477.031l13.781-46.346   l29.467-36.539l12.754,30.912c-0.691,0.818-1.385,1.637-2.072,2.43C298.031,451.385,277.172,468.074,264.775,477.031z    M327.959,416.24l-12.66-30.684l60.152-62.379C365.09,361.549,346.263,392.869,327.959,416.24z" fill="#020202"/></g><g opacity="0.3"><polygon fill="#FFFFFF" points="269.918,118.282 270.958,121.143 282.858,133.943 274.898,111.923  "/><path d="M275.598,52.113l3.069,9.851c9.05,8.939,18.91,19.62,28.75,31.939c0.96,1.2,1.9,2.42,2.84,3.641   c0.181,0.239,0.37,0.47,0.551,0.71l12.54,6.97c-1.9-2.59-3.841-5.15-5.811-7.68c-0.95-1.221-1.89-2.44-2.84-3.641   C300.938,76.683,287.128,62.662,275.598,52.113z" fill="#FFFFFF"/><polygon fill="#FFFFFF" points="324.778,195.843 329.238,211.583 338.068,162.263 329.258,170.843  "/><path d="M371.298,262.433c0,5.72-0.22,11.47-0.649,17.189l5.89,5.631l0.82,0.779c0.81-7.83,1.22-15.739,1.22-23.6   c0-32.69-6.96-65.34-20.7-97.28l-2.25,12.54C366.048,205.613,371.298,234.013,371.298,262.433z" fill="#FFFFFF"/><polygon fill="#FFFFFF" points="298.488,118.333 329.528,135.583 311.188,153.443 313.078,158.683 336.808,135.583    296.658,113.273  "/><polygon fill="#FFFFFF" points="281.208,379.883 282.848,379.563 299.388,376.273 299.218,360.523 292.018,368.263    292.108,376.273 282.858,378.113  "/><polygon fill="#FFFFFF" points="323.998,318.963 366.118,302.952 336.528,274.713 334.978,280.173 358.838,302.952    324.878,315.863  "/><path d="M326.638,399.833l2.659,6.46c15-20.37,26.7-41.87,34.94-64.2l-12.49,12.95   C345.048,370.443,336.658,385.412,326.638,399.833z" fill="#FFFFFF"/><path d="M273.988,463.763c11.95-9.61,26.5-22.78,40.979-39.521c0.03-0.029,0.051-0.05,0.07-0.08l-8.37-20.29   l-4.819,5.971l5.909,14.319c-0.02,0.03-0.04,0.051-0.06,0.08c-10.76,12.44-21.56,22.9-31.29,31.4L273.988,463.763z" fill="#FFFFFF"/><polygon fill="#FFFFFF" points="319.138,352.483 319.218,359.952 346.288,331.883 334.798,336.253  "/><polygon fill="#FFFFFF" points="272.798,404.983 275.728,410.383 284.388,399.643 275.718,401.363  "/></g><circle cx="345.695" cy="56.575" fill="#FECD0E" r="12"/><circle cx="429.782" cy="265.346" fill="#FECD0E" r="12"/><circle cx="360.354" cy="471.457" fill="#FECD0E" r="12"/><circle cx="106.466" cy="477.031" fill="#FECD0E" r="12"/><circle cx="30.418" cy="318.776" fill="#FECD0E" r="12"/><circle cx="118.467" cy="56.575" fill="#FECD0E" r="12"/><polygon fill="#FECD0E" points="458.733,101.973 472.282,81.572 451.302,93.998 430.901,80.455 443.329,101.433 429.782,121.833   450.76,109.407 471.16,122.95 "/><polygon fill="#FECD0E" points="71.371,158.953 84.92,138.552 63.939,150.978 43.539,137.435 55.967,158.413 42.42,178.813   63.398,166.387 83.798,179.93 "/><polygon fill="#FECD0E" points="92.621,392.301 106.17,371.9 85.189,384.326 64.789,370.783 77.217,391.761 63.67,412.161   84.648,399.736 105.048,413.279 "/><polygon fill="#FECD0E" points="446.731,399.725 460.28,379.323 439.3,391.75 418.899,378.207 431.327,399.185 417.78,419.585   438.759,407.159 459.158,420.702 "/></svg>